<svg id="a7bd42df-0eaf-4f58-b315-9606670bfe25" data-name="Layer 1" xmlns="http://www.w3.org/2000/svg" width="1200" height="663" viewBox="0 0 1200 663"><title>functions</title><path d="M1200-.5v663H986.44q-4.53,0-9.06-.06l-2.16-.03q-3.67492-.045-7.35-.15-11.25-.27007-22.46-.86005C820.5,654.92,698.87,618.79,589.56,557.14,328.79,410.05,0,475.65,0,475.65V-.5Z" transform="translate(0 0.5)" fill="#b1e9f0"/><rect x="860" y="191" width="44" height="116" fill="#3f3d56"/><rect x="941" y="236" width="44" height="71" fill="#3f3d56"/><rect x="1022" y="143" width="44" height="164" fill="#3f3d56"/><path d="M830.74341,386.75665c-.22138.17639-22.56421,17.77008-58.33551,27.84125-32.334,9.1048-82.4823,13.68738-139.12946-15.18286l12.61133-10.56372c-10.3819,2.00384-24.79449,1.21649-35.684-.6684,7.02777,8.5307,14.84827,20.66254,18.24786,30.67468l2.95392-16.29486c25.13165,12.84589,51.0683,20.33185,77.15039,22.22931q6.71091.48908,13.43872.48822a189.38573,189.38573,0,0,0,51.552-7.21246c36.43408-10.28943,59.2442-28.27869,59.47045-28.45862Z" transform="translate(0 0.5)" fill="#bbcca7"/></svg>