<?xml version="1.0" standalone="no"?>
<!DOCTYPE svg PUBLIC "-//W3C//DTD SVG 20010904//EN"
 "http://www.w3.org/TR/2001/REC-SVG-20010904/DTD/svg10.dtd">
<svg version="1.0" xmlns="http://www.w3.org/2000/svg"
 width="500.000000pt" height="500.000000pt" viewBox="0 0 500.000000 500.000000"
 preserveAspectRatio="xMidYMid meet">
<metadata>
Created by potrace 1.11, written by Peter Selinger 2001-2013
</metadata>
<g transform="translate(0.000000,500.000000) scale(0.100000,-0.100000)"
fill="#000000" stroke="none">
<path d="M0 2500 l0 -2500 2500 0 2500 0 0 2500 0 2500 -2500 0 -2500 0 0
-2500z m2460 640 c72 -173 140 -324 152 -335 l20 -20 -12 24 c-8 15 -10 42 -5
77 7 59 25 83 25 34 0 -73 57 -130 129 -130 88 0 148 64 138 144 -5 37 -19 54
-136 167 -107 104 -131 132 -136 163 -22 115 50 206 164 206 31 0 73 -3 94 -6
l37 -7 -1 -61 c-1 -61 -1 -61 -14 -30 -24 54 -62 77 -119 71 -88 -8 -132 -89
-92 -165 8 -15 64 -72 125 -127 117 -105 141 -143 141 -213 -1 -50 -31 -114
-67 -140 -42 -30 -108 -42 -168 -32 -27 5 -104 9 -170 10 -103 0 -117 2 -95
13 36 18 36 46 -1 142 l-32 85 -131 0 -131 0 -32 -83 c-41 -104 -42 -132 -5
-145 21 -8 2 -10 -83 -10 -80 0 -102 2 -79 9 16 5 39 19 51 31 11 13 81 166
154 341 73 174 136 314 140 310 4 -5 66 -150 139 -323z m-954 -1226 c35 -76
66 -139 68 -141 2 -2 32 59 67 137 34 77 65 140 69 140 4 0 15 -72 24 -161 17
-146 21 -161 40 -169 16 -7 9 -9 -28 -9 -32 -1 -46 3 -40 8 10 11 -5 241 -16
241 -8 0 -110 -223 -110 -240 0 -31 -22 5 -75 120 -32 71 -59 129 -61 127 -1
-1 -7 -56 -13 -121 -9 -96 -9 -121 1 -128 8 -4 -5 -7 -32 -7 -25 1 -37 3 -28
6 22 6 23 11 44 191 9 84 19 151 21 148 3 -2 34 -66 69 -142z m754 131 c0 -6
-24 -9 -60 -7 l-60 4 0 -156 c0 -137 2 -156 18 -165 13 -8 4 -10 -38 -10 -30
0 -48 3 -40 6 27 11 30 26 30 176 l0 147 -55 0 c-41 0 -56 -4 -64 -17 -9 -16
-10 -15 -11 7 l0 25 140 0 c87 0 140 -4 140 -10z m319 -12 c0 -16 -3 -22 -6
-15 -9 22 -52 33 -76 21 -56 -30 -49 -60 33 -139 64 -61 70 -70 70 -107 0 -67
-56 -103 -130 -83 -38 10 -40 13 -39 48 1 21 3 29 6 17 8 -33 34 -55 66 -55
41 0 67 26 67 66 0 28 -10 41 -60 86 -81 71 -94 121 -44 166 18 16 38 22 70
22 42 0 44 -2 43 -27z m538 -115 c-2 126 -1 132 18 132 19 0 20 -6 17 -172
l-4 -173 -133 140 -134 140 -1 -127 c0 -111 2 -128 18 -137 13 -8 8 -10 -26
-11 -40 0 -42 1 -27 17 14 14 16 38 13 176 l-3 159 132 -139 133 -138 -3 133z
m383 126 c32 -13 40 -21 40 -41 l0 -25 -29 30 c-69 68 -185 41 -220 -51 -16
-42 -13 -124 6 -164 24 -52 67 -75 130 -70 28 2 63 11 78 21 24 16 26 22 23
72 -3 49 -1 54 17 54 19 0 20 -5 15 -57 -4 -51 -9 -60 -37 -79 -66 -44 -162
-39 -224 13 -62 52 -77 144 -36 223 39 79 143 111 237 74z m-2258 -151 c49
-118 72 -161 89 -170 22 -12 20 -13 -27 -13 -48 0 -51 2 -47 23 2 12 -3 39
-12 60 l-16 38 -66 -3 -65 -3 -18 -45 c-12 -31 -15 -49 -8 -57 8 -10 1 -13
-33 -13 -40 0 -42 1 -24 14 12 8 49 82 85 170 36 86 68 156 71 156 3 0 35 -71
71 -157z m670 145 c-8 -8 -12 -58 -12 -160 0 -129 2 -148 18 -157 13 -8 6 -10
-33 -10 -39 0 -46 2 -32 10 15 9 17 28 17 157 0 102 -4 152 -12 160 -9 9 -3
12 27 12 30 0 36 -3 27 -12z m830 0 c-8 -8 -12 -58 -12 -160 0 -129 2 -148 18
-157 13 -8 6 -10 -31 -11 -44 0 -47 1 -33 16 13 13 16 42 16 158 0 97 -4 146
-12 154 -9 9 -3 12 27 12 30 0 36 -3 27 -12z m970 0 c-7 -7 -12 -40 -12 -80
l0 -68 101 0 101 0 -4 80 -3 80 28 0 c24 0 26 -2 17 -19 -11 -21 -14 -250 -4
-288 3 -12 13 -24 23 -26 9 -3 -9 -5 -39 -6 -42 0 -51 2 -37 10 14 8 17 24 17
79 l0 70 -100 0 -100 0 0 -70 c0 -55 3 -71 18 -79 13 -8 6 -10 -33 -10 -39 0
-46 2 -32 10 15 9 17 28 17 157 0 102 -4 152 -12 160 -9 9 -3 12 27 12 30 0
36 -3 27 -12z"/>
<path d="M2251 3202 c-29 -75 -56 -143 -58 -149 -4 -10 22 -13 111 -13 64 0
116 3 116 7 0 11 -101 278 -108 285 -4 4 -31 -54 -61 -130z"/>
<path d="M1137 1926 c-15 -40 -27 -76 -27 -79 0 -4 25 -7 55 -7 30 0 55 4 55
10 0 9 -48 141 -53 147 -2 1 -15 -31 -30 -71z"/>
</g>
</svg>
